<svg id="buttons" xmlns="http://www.w3.org/2000/svg" viewBox="0 0 20 20"><title>icons</title><rect x="2.5" y="2.5" width="15" height="8" rx="2.5" style="fill:#b3b3b4"/><path d="M15,3a2,2,0,0,1,2,2V8a2,2,0,0,1-2,2H5A2,2,0,0,1,3,8V5A2,2,0,0,1,5,3H15m0-1H5A3,3,0,0,0,2,5V8a3,3,0,0,0,3,3H15a3,3,0,0,0,3-3V5a3,3,0,0,0-3-3Z" style="fill:#444"/><polygon points="11.1 6.97 10.32 13.88 12.21 13.22 14.02 18.41 15.91 17.76 14.1 12.57 15.99 11.91 11.1 6.97" style="fill:#fff;stroke:#444;stroke-miterlimit:10"/></svg>